<svg xmlns="http://www.w3.org/2000/svg" viewBox="0 0 463 463" style="enable-background:new 0 0 463 463" xml:space="preserve"><path d="M463 231.5c0-12.958-10.542-23.5-23.5-23.5H255V71.5c0-12.958-10.542-23.5-23.5-23.5S208 58.542 208 71.5V208H23.5C10.542 208 0 218.542 0 231.5c0 8.481 4.517 15.927 11.271 20.059A23.353 23.353 0 0 0 8 263.5c0 8.481 4.517 15.927 11.271 20.059A23.353 23.353 0 0 0 16 295.5c0 8.481 4.517 15.927 11.271 20.059A23.353 23.353 0 0 0 24 327.5c0 8.481 4.517 15.927 11.271 20.059A23.353 23.353 0 0 0 32 359.5c0 8.481 4.517 15.927 11.271 20.059A23.353 23.353 0 0 0 40 391.5c0 12.958 10.542 23.5 23.5 23.5h336c12.958 0 23.5-10.542 23.5-23.5 0-4.357-1.196-8.439-3.271-11.941C426.483 375.427 431 367.981 431 359.5c0-3.755-.89-7.305-2.463-10.456.089-.081.181-.155.266-.241a7.458 7.458 0 0 0 1.958-3.455c5.037-4.313 8.239-10.712 8.239-17.848 0-4.357-1.196-8.439-3.271-11.941C442.483 311.427 447 303.981 447 295.5c0-4.357-1.196-8.439-3.271-11.941C450.483 279.427 455 271.981 455 263.5c0-4.357-1.196-8.439-3.271-11.941C458.483 247.427 463 239.981 463 231.5zm-15 0c0 4.687-3.813 8.5-8.5 8.5h-28.894l-17-17H439.5c4.687 0 8.5 3.813 8.5 8.5zm-8 32c0 4.687-3.813 8.5-8.5 8.5h-36.894l-17-17H431.5c4.687 0 8.5 3.813 8.5 8.5zm-8 32c0 4.687-3.813 8.5-8.5 8.5h-52.894l-17-17H423.5c4.687 0 8.5 3.813 8.5 8.5zm-8 32a8.441 8.441 0 0 1-1.337 4.557L409.606 319h5.894c4.687 0 8.5 3.813 8.5 8.5zM306.606 400l-17-17h58.787l17 17h-58.787zm-80 0-17-17h58.787l17 17h-58.787zm-80 0-17-17h58.787l17 17h-58.787zm-56-32-17-17h58.787l17 17H90.606zM55.5 368c-4.687 0-8.5-3.813-8.5-8.5 0-3.754 2.448-6.941 5.83-8.064L69.394 368H55.5zm-8-32c-4.687 0-8.5-3.813-8.5-8.5s3.813-8.5 8.5-8.5h20.894l17 17H47.5zm-8-32c-4.687 0-8.5-3.813-8.5-8.5s3.813-8.5 8.5-8.5h52.894l17 17H39.5zm-8-32c-4.687 0-8.5-3.813-8.5-8.5s3.813-8.5 8.5-8.5h4.894l17 17H31.5zm100.894-49 17 17H90.606l-17-17h58.788zm64 32 17 17h-58.787l-17-17h58.787zm80 0 17 17h-58.787l-17-17h58.787zm96-32 17 17h-58.787l-17-17h58.787zm-16 32 17 17h-58.787l-17-17h58.787zm32 64 17 17h-58.787l-17-17h58.787zm-137.788 49-17-17h58.787l17 17h-58.787zm-80 0-17-17h58.787l17 17h-58.787zm-64-32-17-17h58.787l17 17h-58.787zm65.788-49 17 17h-58.787l-17-17h58.787zm80 0 17 17h-58.787l-17-17h58.787zm-65.788 49-17-17h58.787l17 17h-58.787zm80 0-17-17h58.787l17 17h-58.787zm24-32-17-17h58.787l17 17h-58.787zm-174.212-49 17 17H74.606l-17-17h58.788zm214.212 113-17-17h58.787l17 17h-58.787zm79.564-.436L393.606 351H407.5c4.687 0 8.5 3.813 8.5 8.5 0 3.754-2.448 6.941-5.83 8.064zM292.394 223l17 17h-55.991a23.377 23.377 0 0 0 1.597-8.5V223h37.394zM223 71.5c0-4.687 3.813-8.5 8.5-8.5s8.5 3.813 8.5 8.5v160c0 4.687-3.813 8.5-8.5 8.5s-8.5-3.813-8.5-8.5v-160zM209.597 240h-38.991l-17-17H208v8.5c0 2.997.57 5.862 1.597 8.5zM23.5 223h28.894l17 17H23.5c-4.687 0-8.5-3.813-8.5-8.5s3.813-8.5 8.5-8.5zM55 391.5c0-4.687 3.813-8.5 8.5-8.5h44.894l17 17H63.5c-4.687 0-8.5-3.813-8.5-8.5zm344.5 8.5h-12.894l-17-17H399.5c4.687 0 8.5 3.813 8.5 8.5s-3.813 8.5-8.5 8.5z"/></svg>