<svg version="1.2" xmlns="http://www.w3.org/2000/svg" width="35" height="35"><path d="M17.5 0C27.2 0 35 7.8 35 17.5S27.2 35 17.5 35 0 27.2 0 17.5 7.8 0 17.5 0z" style="fill:none;stroke:#fff;stroke-width:2"/><path d="M24.4 14v.4c0 4-3.3 8.6-9.4 8.6-1.8 0-3.5-.5-5-1.4q.4.1.8.1c1.5 0 2.9-.5 4.1-1.3-1.5 0-2.7-.9-3.1-2.1h.6q.5 0 .9-.1c-1.5-.3-2.7-1.5-2.7-2.9v-.1q.7.4 1.5.4c-.9-.5-1.4-1.5-1.4-2.5q0-.9.4-1.5c1.6 1.8 4.1 3 6.8 3.1q-.1-.3-.1-.7c0-1.6 1.5-3 3.3-3 .9 0 1.8.4 2.4 1q1.1-.2 2.1-.8c-.3.7-.8 1.3-1.5 1.7q1-.1 1.9-.5-.7.9-1.6 1.6z" style="fill:#fff"/></svg>